#N canvas 765 25 417 356 12;
#N canvas 177 292 1069 569 guts 1;
#X obj 43 119 array define oneSound;
#X obj 85 530 soundfiler;
#X msg 52 477 read -resize \$1 oneSound;
#X obj 55 416 bng 15 250 50 0 empty empty empty 17 7 0 10 #fcfcfc #000000
#000000;
#X obj 53 438 openpanel;
#X floatatom 85 554 14 0 0 0 - - - 0;
#X msg 87 640 \; oneSound normalize 1;
#X obj 92 596 t b;
#X obj 120 585 s length_samples;
#X obj 45 539 bng 15 250 50 0 empty empty empty 17 7 0 10 #fcfcfc #000000
#000000;
#X obj 37 71 s all_random;
#X obj 38 54 bng 15 250 50 0 empty empty empty 17 7 0 10 #fcfcfc #000000
#000000;
#X obj 335 247 metro 200;
#X msg 335 271 1;
#X obj 335 295 + 1;
#X floatatom 335 319 5 0 0 0 - - - 0;
#X floatatom 335 366 5 0 0 0 - - - 0;
#X obj 338 219 tgl 15 0 empty empty empty 17 7 0 10 #fcfcfc #000000
#000000 0 1;
#X obj 332 451 send;
#X msg 367 422 symbol \$1_trigger;
#X obj 338 395 t b f;
#X msg 80 303 vis 2 1;
#X obj 599 273 tabwrite~ oneSound;
#X obj 596 222 adc~;
#X obj 670 48 tgl 15 0 empty record_play_rcv empty 17 7 0 10 #fcfcfc
#000000 #000000 0 1;
#X obj 669 72 sel 1 0;
#X msg 668 179 bang;
#X msg 715 184 stop;
#X obj 822 257 timer;
#X floatatom 822 281 7 0 0 0 - - - 0;
#X msg 836 176 tempo 1 samp;
#X obj 834 149 loadbang;
#X obj 849 347 s length_samples;
#X obj 801 392 s all_random;
#X msg 735 102 \; oneSound const 0;
#X obj 669 119 t b b;
#X obj 885 260 bng 15 250 50 0 empty empty empty 17 7 0 10 #fcfcfc
#000000 #000000;
#X obj 57 180 loadbang;
#X msg 56 204 220500;
#X obj 58 247 array size oneSound;
#X msg 346 179 0;
#X msg 381 180 1;
#X obj 488 306 random 15;
#X obj 488 330 + 4;
#X obj 457 225 random 200;
#X obj 457 249 + 120;
#X msg 630 371 \; oneSound normalize 1;
#X text 106 419 optional sound loading thing;
#N canvas 329 161 625 417 vu 0;
#X obj 59 129 env~ 1024;
#X obj 161 111 abs~;
#X obj 161 213 snapshot~;
#X obj 161 256 rmstodb;
#X obj 161 21 inlet~;
#X obj 161 288 - 100;
#X obj 59 287 - 100;
#X obj 59 361 outlet;
#X obj 161 361 outlet;
#X text 344 307 Check the help file of env~ and slop~ for more details.
, f 31;
#X obj 239 89 expr 1000 / $f1;
#X floatatom 239 117 5 0 0 0 - - - 0;
#X obj 161 146 slop~ 0 0 0 0 1e+09;
#X obj 239 18 inlet;
#X floatatom 239 57 5 0 0 0 - - - 0;
#X text 359 89 convert to hz;
#X text 282 118 hz;
#X text 284 57 peak decay time in ms;
#X obj 59 171 t f b;
#X text 345 132 The env~ object is dedicated to RMS analysis. Its output
is in dB (0-100 range \, pd style) but needs to be converted to dBFS
(and we do that by simply subtracting 100)., f 31;
#X text 345 225 The slop~ object is used here for peak detection. We
need to convert the output to dB with rmstodb and also subtract by
100 to convert it to dBFS., f 31;
#X connect 0 0 18 0;
#X connect 1 0 12 0;
#X connect 2 0 3 0;
#X connect 3 0 5 0;
#X connect 4 0 0 0;
#X connect 4 0 1 0;
#X connect 5 0 8 0;
#X connect 6 0 7 0;
#X connect 10 0 11 0;
#X connect 11 0 12 3;
#X connect 12 0 2 0;
#X connect 13 0 14 0;
#X connect 14 0 10 0;
#X connect 18 0 6 0;
#X connect 18 1 2 0;
#X restore 630 483 pd vu;
#X obj 628 522 s \$0-vu-L;
#X obj 838 475 catch~ oneSound_out;
#X obj 836 528 dac~;
#X obj 1011 73 loadbang;
#X msg 1011 97 in 12;
#X obj 1009 125 s bela_setDigital;
#X obj 901 16 r bela_digitalIn12;
#X obj 871 84 print digital12;
#X obj 247 67 loadbang;
#X msg 247 91 \; pd dsp 1;
#X obj 439 39 key;
#X obj 439 63 sel 32;
#X msg 441 92 1;
#X obj 492 59 sel 32;
#X obj 492 35 keyup;
#X msg 494 87 0;
#X obj 482 117 tgl 15 0 empty empty empty 17 7 0 10 #fcfcfc #000000
#000000 0 1;
#X obj 492 156 change;
#X obj 983 392 sel 1;
#X msg 985 431 \; oneSound const 0;
#X obj 982 362 i;
#X obj 981 327 < 8000;
#X obj 1045 384 bng 15 250 50 0 empty empty empty 17 7 0 10 #fcfcfc
#000000 #000000;
#X obj 823 300 t b b f;
#X obj 335 342 % 10;
#X obj 906 43 bela_debounce;
#X obj 50 347 clone oneSound_player 20;
#X connect 1 0 5 0;
#X connect 2 0 1 0;
#X connect 3 0 4 0;
#X connect 4 0 2 0;
#X connect 5 0 7 0;
#X connect 5 0 8 0;
#X connect 7 0 6 0;
#X connect 9 0 5 0;
#X connect 11 0 10 0;
#X connect 12 0 13 0;
#X connect 13 0 14 0;
#X connect 14 0 15 0;
#X connect 15 0 14 1;
#X connect 15 0 73 0;
#X connect 16 0 20 0;
#X connect 17 0 12 0;
#X connect 19 0 18 1;
#X connect 20 0 18 0;
#X connect 20 1 19 0;
#X connect 21 0 75 0;
#X connect 23 0 22 0;
#X connect 24 0 25 0;
#X connect 25 0 35 0;
#X connect 25 0 40 0;
#X connect 25 1 27 0;
#X connect 25 1 28 1;
#X connect 25 1 41 0;
#X connect 25 1 42 0;
#X connect 25 1 44 0;
#X connect 26 0 22 0;
#X connect 26 0 28 0;
#X connect 27 0 22 0;
#X connect 28 0 29 0;
#X connect 29 0 70 0;
#X connect 29 0 72 0;
#X connect 30 0 28 0;
#X connect 31 0 30 0;
#X connect 35 0 26 0;
#X connect 35 1 34 0;
#X connect 36 0 29 0;
#X connect 37 0 38 0;
#X connect 38 0 39 0;
#X connect 40 0 17 0;
#X connect 41 0 17 0;
#X connect 42 0 43 0;
#X connect 43 0 73 1;
#X connect 44 0 45 0;
#X connect 45 0 12 1;
#X connect 48 0 49 0;
#X connect 50 0 51 0;
#X connect 50 0 51 1;
#X connect 50 0 48 0;
#X connect 52 0 53 0;
#X connect 53 0 54 0;
#X connect 55 0 74 0;
#X connect 57 0 58 0;
#X connect 59 0 60 0;
#X connect 60 0 61 0;
#X connect 61 0 65 0;
#X connect 62 0 64 0;
#X connect 63 0 62 0;
#X connect 64 0 65 0;
#X connect 65 0 66 0;
#X connect 67 0 68 0;
#X connect 67 0 71 0;
#X connect 69 0 67 0;
#X connect 70 0 69 1;
#X connect 72 0 69 0;
#X connect 72 1 33 0;
#X connect 72 1 46 0;
#X connect 72 2 32 0;
#X connect 73 0 16 0;
#X connect 74 0 56 0;
#X connect 74 0 24 0;
#X restore 221 250 pd guts;
#X obj 92 35 tgl 200 0 record_play_rcv empty empty 17 7 0 10 #faff00
#000000 #000000 0 1;
#X obj 300 113 vu 15 120 \$0-vu-L empty 20 10 1 24 #404040 #000000
0 0;
