#N canvas 453 31 496 498 12;
#X obj 155 371 tabread4~ oneSound, f 19;
#X obj 285 185 random;
#X obj 324 163 r length_samples;
#X obj 285 164 bng 18 250 50 0 empty empty empty 17 7 0 10 #fcfcfc #000000 #000000;
#X floatatom 285 207 11 0 0 0 - - - 0;
#X msg 154 328 0, f 6;
#X obj 154 349 line~;
#X obj 10 32 bng 18 250 50 0 empty empty empty 17 7 0 10 #fcfcfc #000000 #000000;
#X obj 10 53 t b b, f 21;
#X obj 28 117 random 2000, f 14;
#X floatatom 10 183 7 0 0 0 - - - 0;
#X obj 10 264 pack 0 0;
#X msg 10 286 \$1 \$2;
#X obj 28 97 bng 18 250 50 0 empty empty empty 17 7 0 10 #fcfcfc #000000 #000000;
#X obj 10 139 i;
#X obj 10 10 r \$1_trigger;
#X obj 28 75 r all_random;
#X obj 285 141 r all_random;
#X obj 119 245 *, f 8;
#X obj 172 162 bng 18 250 50 0 empty empty empty 17 7 0 10 #fcfcfc #000000 #000000;
#X obj 172 141 r all_random;
#X obj 172 182 random 1000;
#X obj 172 203 / 1000;
#X obj 172 224 + 0.5;
#X obj 100 10 inlet;
#X obj 123 75 r length_samples;
#X obj 246 441 print;
#X obj 123 96 / 2;
#X obj 119 182 / 44.1;
#X obj 287 419 *~;
#X obj 305 397 line~;
#X msg 305 371 1 5;
#X msg 337 371 0 5;
#X obj 337 307 delay;
#X floatatom 369 264 5 0 0 0 - - - 0;
#X obj 369 285 - 5;
#X obj 337 351 bng 18 250 50 0 empty empty empty 17 7 0 10 #fcfcfc #000000 #000000;
#X obj 305 351 bng 18 250 50 0 empty empty empty 17 7 0 10 #fcfcfc #000000 #000000;
#X obj 379 307 loadbang;
#X obj 10 161 t f b f, f 16;
#X obj 287 441 throw~ oneSound_out;
#X connect 0 0 29 0;
#X connect 1 0 4 0;
#X connect 2 0 1 1;
#X connect 3 0 1 0;
#X connect 4 0 0 1;
#X connect 5 0 6 0;
#X connect 6 0 0 0;
#X connect 7 0 8 0;
#X connect 8 0 14 0;
#X connect 8 1 5 0;
#X connect 9 0 14 1;
#X connect 10 0 11 0;
#X connect 11 0 12 0;
#X connect 12 0 6 0;
#X connect 13 0 9 0;
#X connect 14 0 39 0;
#X connect 15 0 7 0;
#X connect 16 0 13 0;
#X connect 17 0 3 0;
#X connect 18 0 11 1;
#X connect 18 0 34 0;
#X connect 19 0 21 0;
#X connect 20 0 19 0;
#X connect 21 0 22 0;
#X connect 22 0 23 0;
#X connect 23 0 18 1;
#X connect 25 0 27 0;
#X connect 27 0 9 1;
#X connect 28 0 18 0;
#X connect 29 0 40 0;
#X connect 30 0 29 1;
#X connect 31 0 30 0;
#X connect 32 0 30 0;
#X connect 33 0 36 0;
#X connect 34 0 35 0;
#X connect 35 0 33 1;
#X connect 36 0 32 0;
#X connect 37 0 31 0;
#X connect 38 0 36 0;
#X connect 39 0 10 0;
#X connect 39 1 37 0;
#X connect 39 1 33 0;
#X connect 39 2 28 0;
