#N canvas 768 160 417 356 12;
#N canvas 13 163 1069 709 guts 0;
#X obj 37 59 array define oneSound;
#X obj 38 289 soundfiler;
#X msg 38 267 read -resize \$1 oneSound;
#X obj 38 226 bng 15 250 50 0 empty empty optional\\\ sound\\\ loading\\\ thing
17 7 0 10 #fcfcfc #000000 #000000;
#X obj 38 244 openpanel;
#X floatatom 38 312 14 0 0 0 - - - 0;
#X msg 37 360 \; oneSound normalize 1;
#X obj 38 337 t b;
#X obj 67 337 s length_samples;
#X obj 7 291 bng 15 250 50 0 empty empty empty 17 7 0 10 #fcfcfc #000000
#000000;
#X obj 37 183 clone oneSound_player 20;
#X obj 37 37 s all_random;
#X obj 37 20 bng 15 250 50 0 empty empty empty 17 7 0 10 #fcfcfc #000000
#000000;
#X obj 351 201 metro 200, f 12;
#X msg 351 225 1;
#X obj 351 249 + 1;
#X floatatom 351 273 5 0 0 0 - - - 0;
#X obj 351 296 % 20, f 7;
#X floatatom 351 318 5 0 0 0 - - - 0;
#X obj 351 183 tgl 15 0 empty empty empty 17 7 0 10 #fcfcfc #000000
#000000 0 1;
#X obj 351 385 send, f 5;
#X msg 383 362 symbol \$1_trigger;
#X obj 351 340 t b f;
#X msg 37 161 vis 2 1;
#X obj 559 215 tabwrite~ oneSound;
#X obj 559 157 adc~;
#X obj 594 32 tgl 15 0 empty record_play_rcv empty 17 7 0 10 #fcfcfc
#000000 #000000 0 1;
#X obj 594 50 sel 1 0, f 14;
#X msg 594 157 bang;
#X msg 641 157 stop;
#X obj 747 235 timer;
#X floatatom 747 258 7 0 0 0 - - - 0;
#X msg 747 193 tempo 1 samp;
#X obj 747 171 loadbang;
#X obj 779 301 s length_samples;
#X obj 747 279 t b f;
#X obj 747 323 s all_random;
#X msg 626 119 \; oneSound const 0;
#X obj 594 97 t b b;
#X obj 719 243 bng 15 250 50 0 empty empty empty 17 7 0 10 #fcfcfc
#000000 #000000;
#X obj 37 88 loadbang;
#X msg 37 110 220500;
#X obj 37 132 array size oneSound;
#X msg 351 157 0;
#X msg 384 157 1;
#X obj 397 249 random 15;
#X obj 397 272 + 4;
#X obj 432 155 random 200;
#X obj 432 179 + 120;
#X msg 593 309 \; oneSound normalize 1;
#N canvas 329 161 611 388 vu 0;
#X obj 59 111 env~ 1024;
#X obj 161 109 abs~;
#X obj 161 151 snapshot~;
#X obj 161 172 rmstodb;
#X obj 161 21 inlet~;
#X obj 161 193 - 100;
#X obj 59 193 - 100;
#X obj 59 214 outlet;
#X obj 161 214 outlet;
#X text 332 291 Check the help file of env~ and slop~ for more details.
, f 31;
#X obj 239 89 expr 1000 / $f1;
#X floatatom 239 110 5 0 0 1 hz - - 0;
#X obj 161 130 slop~ 0 0 0 0 1e+09;
#X obj 239 21 inlet;
#X floatatom 239 57 5 0 0 1 peak\ decay\ time\ in\ ms - - 0;
#X text 359 89 convert to hz;
#X obj 59 132 t f b;
#X text 333 116 The env~ object is dedicated to RMS analysis. Its output
is in dB (0-100 range \, pd style) but needs to be converted to dBFS
(and we do that by simply subtracting 100)., f 31;
#X text 333 209 The slop~ object is used here for peak detection. We
need to convert the output to dB with rmstodb and also subtract by
100 to convert it to dBFS., f 31;
#X connect 0 0 16 0;
#X connect 1 0 12 0;
#X connect 2 0 3 0;
#X connect 3 0 5 0;
#X connect 4 0 0 0;
#X connect 4 0 1 0;
#X connect 5 0 8 0;
#X connect 6 0 7 0;
#X connect 10 0 11 0;
#X connect 11 0 12 3;
#X connect 12 0 2 0;
#X connect 13 0 14 0;
#X connect 14 0 10 0;
#X connect 16 0 6 0;
#X connect 16 1 2 0;
#X restore 523 382 pd vu;
#X obj 523 405 s \$0-vu-L;
#X obj 593 352 catch~ oneSound_out;
#X obj 593 405 dac~;
#X obj 277 37 loadbang;
#X msg 277 61 in 12;
#X obj 275 89 s bela_setDigital;
#X obj 412 24 r bela_digitalIn12;
#X obj 411 80 print digital12;
#X obj 412 51 bela_debounce;
#X connect 1 0 5 0;
#X connect 2 0 1 0;
#X connect 3 0 4 0;
#X connect 4 0 2 0;
#X connect 5 0 7 0;
#X connect 5 0 8 0;
#X connect 7 0 6 0;
#X connect 9 0 5 0;
#X connect 12 0 11 0;
#X connect 13 0 14 0;
#X connect 14 0 15 0;
#X connect 15 0 16 0;
#X connect 16 0 15 1;
#X connect 16 0 17 0;
#X connect 17 0 18 0;
#X connect 18 0 22 0;
#X connect 19 0 13 0;
#X connect 21 0 20 1;
#X connect 22 0 20 0;
#X connect 22 1 21 0;
#X connect 23 0 10 0;
#X connect 25 0 24 0;
#X connect 26 0 27 0;
#X connect 27 0 38 0;
#X connect 27 0 43 0;
#X connect 27 1 29 0;
#X connect 27 1 30 1;
#X connect 27 1 44 0;
#X connect 27 1 45 0;
#X connect 27 1 47 0;
#X connect 28 0 24 0;
#X connect 28 0 30 0;
#X connect 29 0 24 0;
#X connect 30 0 31 0;
#X connect 31 0 35 0;
#X connect 32 0 30 0;
#X connect 33 0 32 0;
#X connect 35 0 36 0;
#X connect 35 0 49 0;
#X connect 35 1 34 0;
#X connect 38 0 28 0;
#X connect 38 1 37 0;
#X connect 39 0 31 0;
#X connect 40 0 41 0;
#X connect 41 0 42 0;
#X connect 43 0 19 0;
#X connect 44 0 19 0;
#X connect 45 0 46 0;
#X connect 46 0 17 1;
#X connect 47 0 48 0;
#X connect 48 0 13 1;
#X connect 50 0 51 0;
#X connect 52 0 53 0;
#X connect 52 0 53 1;
#X connect 52 0 50 0;
#X connect 54 0 55 0;
#X connect 55 0 56 0;
#X connect 57 0 59 0;
#X connect 59 0 58 0;
#X connect 59 0 26 0;
#X restore 238 241 pd guts;
#X obj 92 35 tgl 200 0 record_play_rcv empty empty 17 7 0 10 #faff00
#000000 #000000 0 1;
#X obj 300 113 vu 15 120 \$0-vu-L empty 20 10 1 24 #404040 #000000
0 0;
